<?xml version="1.0" ?><!DOCTYPE svg  PUBLIC '-//W3C//DTD SVG 1.1//EN'  'http://www.w3.org/Graphics/SVG/1.1/DTD/svg11.dtd'><svg enable-background="new 0 0 512 512" height="512px" id="Layer_1" version="1.1" viewBox="0 0 512 512" width="512px" xml:space="preserve" xmlns="http://www.w3.org/2000/svg" xmlns:xlink="http://www.w3.org/1999/xlink"><g><path d="M503.466,132.268L379.733,8.534c-11.38-11.379-29.854-11.379-41.234,0L214.767,132.268   c-11.411,11.379-11.411,29.854,0,41.265l20.602,20.601L359.101,70.401L441.6,152.9L317.866,276.633l20.632,20.633   c11.38,11.379,29.854,11.379,41.234,0l123.732-123.732C514.845,162.122,514.845,143.646,503.466,132.268z"/><path d="M276.633,317.866L152.9,441.6l-82.499-82.498l123.732-123.733l-20.632-20.632c-11.379-11.38-29.854-11.38-41.233,0   L8.534,338.468c-11.38,11.41-11.38,29.886,0,41.265l123.732,123.733c11.379,11.379,29.854,11.379,41.233,0l123.732-123.733   c11.41-11.379,11.41-29.854,0-41.265L276.633,317.866z"/><path d="M173.501,338.468c11.411,11.41,29.854,11.41,41.266,0l123.731-123.732c11.38-11.38,11.38-29.824,0-41.203   c-11.409-11.41-29.854-11.41-41.265,0L173.501,297.266C162.122,308.645,162.122,327.089,173.501,338.468z"/></g></svg>